<svg id="visual" viewBox="0 0 450 900" width="450" height="900" xmlns="http://www.w3.org/2000/svg" xmlns:xlink="http://www.w3.org/1999/xlink" version="1.1"><rect x="0" y="0" width="450" height="900" fill="#082f49"></rect><path d="M0 31L20 31L20 28L39 28L39 116L59 116L59 83L78 83L78 83L98 83L98 30L117 30L117 73L137 73L137 36L157 36L157 122L176 122L176 29L196 29L196 28L215 28L215 98L235 98L235 56L254 56L254 58L274 58L274 75L293 75L293 38L313 38L313 31L333 31L333 112L352 112L352 61L372 61L372 65L391 65L391 71L411 71L411 81L430 81L430 131L450 131L450 122L450 901L450 901L430 901L430 901L411 901L411 901L391 901L391 901L372 901L372 901L352 901L352 901L333 901L333 901L313 901L313 901L293 901L293 901L274 901L274 901L254 901L254 901L235 901L235 901L215 901L215 901L196 901L196 901L176 901L176 901L157 901L157 901L137 901L137 901L117 901L117 901L98 901L98 901L78 901L78 901L59 901L59 901L39 901L39 901L20 901L20 901L0 901Z" fill="#075985"></path><path d="M0 174L20 174L20 124L39 124L39 79L59 79L59 178L78 178L78 137L98 137L98 167L117 167L117 204L137 204L137 117L157 117L157 172L176 172L176 199L196 199L196 205L215 205L215 108L235 108L235 78L254 78L254 148L274 148L274 120L293 120L293 139L313 139L313 137L333 137L333 196L352 196L352 157L372 157L372 157L391 157L391 152L411 152L411 196L430 196L430 116L450 116L450 165L450 901L450 901L430 901L430 901L411 901L411 901L391 901L391 901L372 901L372 901L352 901L352 901L333 901L333 901L313 901L313 901L293 901L293 901L274 901L274 901L254 901L254 901L235 901L235 901L215 901L215 901L196 901L196 901L176 901L176 901L157 901L157 901L137 901L137 901L117 901L117 901L98 901L98 901L78 901L78 901L59 901L59 901L39 901L39 901L20 901L20 901L0 901Z" fill="#0b6a9b"></path><path d="M0 176L20 176L20 253L39 253L39 141L59 141L59 248L78 248L78 174L98 174L98 169L117 169L117 187L137 187L137 217L157 217L157 212L176 212L176 160L196 160L196 186L215 186L215 222L235 222L235 213L254 213L254 162L274 162L274 155L293 155L293 210L313 210L313 207L333 207L333 193L352 193L352 144L372 144L372 228L391 228L391 191L411 191L411 275L430 275L430 234L450 234L450 153L450 901L450 901L430 901L430 901L411 901L411 901L391 901L391 901L372 901L372 901L352 901L352 901L333 901L333 901L313 901L313 901L293 901L293 901L274 901L274 901L254 901L254 901L235 901L235 901L215 901L215 901L196 901L196 901L176 901L176 901L157 901L157 901L137 901L137 901L117 901L117 901L98 901L98 901L78 901L78 901L59 901L59 901L39 901L39 901L20 901L20 901L0 901Z" fill="#0e7bb1"></path><path d="M0 230L20 230L20 311L39 311L39 325L59 325L59 243L78 243L78 240L98 240L98 218L117 218L117 278L137 278L137 209L157 209L157 246L176 246L176 306L196 306L196 210L215 210L215 329L235 329L235 276L254 276L254 276L274 276L274 318L293 318L293 328L313 328L313 217L333 217L333 244L352 244L352 323L372 323L372 266L391 266L391 212L411 212L411 300L430 300L430 302L450 302L450 237L450 901L450 901L430 901L430 901L411 901L411 901L391 901L391 901L372 901L372 901L352 901L352 901L333 901L333 901L313 901L313 901L293 901L293 901L274 901L274 901L254 901L254 901L235 901L235 901L215 901L215 901L196 901L196 901L176 901L176 901L157 901L157 901L137 901L137 901L117 901L117 901L98 901L98 901L78 901L78 901L59 901L59 901L39 901L39 901L20 901L20 901L0 901Z" fill="#0f8cc8"></path><path d="M0 342L20 342L20 279L39 279L39 340L59 340L59 348L78 348L78 413L98 413L98 276L117 276L117 360L137 360L137 402L157 402L157 354L176 354L176 287L196 287L196 403L215 403L215 284L235 284L235 395L254 395L254 334L274 334L274 409L293 409L293 309L313 309L313 337L333 337L333 398L352 398L352 394L372 394L372 351L391 351L391 357L411 357L411 378L430 378L430 316L450 316L450 312L450 901L450 901L430 901L430 901L411 901L411 901L391 901L391 901L372 901L372 901L352 901L352 901L333 901L333 901L313 901L313 901L293 901L293 901L274 901L274 901L254 901L254 901L235 901L235 901L215 901L215 901L196 901L196 901L176 901L176 901L157 901L157 901L137 901L137 901L117 901L117 901L98 901L98 901L78 901L78 901L59 901L59 901L39 901L39 901L20 901L20 901L0 901Z" fill="#0f9ee0"></path><path d="M0 467L20 467L20 410L39 410L39 458L59 458L59 437L78 437L78 475L98 475L98 398L117 398L117 354L137 354L137 393L157 393L157 457L176 457L176 463L196 463L196 444L215 444L215 437L235 437L235 435L254 435L254 396L274 396L274 480L293 480L293 396L313 396L313 438L333 438L333 390L352 390L352 420L372 420L372 359L391 359L391 357L411 357L411 452L430 452L430 360L450 360L450 407L450 901L450 901L430 901L430 901L411 901L411 901L391 901L391 901L372 901L372 901L352 901L352 901L333 901L333 901L313 901L313 901L293 901L293 901L274 901L274 901L254 901L254 901L235 901L235 901L215 901L215 901L196 901L196 901L176 901L176 901L157 901L157 901L137 901L137 901L117 901L117 901L98 901L98 901L78 901L78 901L59 901L59 901L39 901L39 901L20 901L20 901L0 901Z" fill="#0ea5e9"></path><path d="M0 505L20 505L20 478L39 478L39 541L59 541L59 500L78 500L78 454L98 454L98 490L117 490L117 537L137 537L137 446L157 446L157 469L176 469L176 435L196 435L196 432L215 432L215 448L235 448L235 437L254 437L254 546L274 546L274 472L293 472L293 461L313 461L313 442L333 442L333 433L352 433L352 420L372 420L372 429L391 429L391 430L411 430L411 456L430 456L430 462L450 462L450 491L450 901L450 901L430 901L430 901L411 901L411 901L391 901L391 901L372 901L372 901L352 901L352 901L333 901L333 901L313 901L313 901L293 901L293 901L274 901L274 901L254 901L254 901L235 901L235 901L215 901L215 901L196 901L196 901L176 901L176 901L157 901L157 901L137 901L137 901L117 901L117 901L98 901L98 901L78 901L78 901L59 901L59 901L39 901L39 901L20 901L20 901L0 901Z" fill="#0ea5e9"></path><path d="M0 586L20 586L20 566L39 566L39 484L59 484L59 484L78 484L78 572L98 572L98 519L117 519L117 580L137 580L137 557L157 557L157 614L176 614L176 605L196 605L196 592L215 592L215 493L235 493L235 487L254 487L254 569L274 569L274 602L293 602L293 618L313 618L313 584L333 584L333 503L352 503L352 547L372 547L372 568L391 568L391 517L411 517L411 535L430 535L430 594L450 594L450 614L450 901L450 901L430 901L430 901L411 901L411 901L391 901L391 901L372 901L372 901L352 901L352 901L333 901L333 901L313 901L313 901L293 901L293 901L274 901L274 901L254 901L254 901L235 901L235 901L215 901L215 901L196 901L196 901L176 901L176 901L157 901L157 901L137 901L137 901L117 901L117 901L98 901L98 901L78 901L78 901L59 901L59 901L39 901L39 901L20 901L20 901L0 901Z" fill="#0f9ee0"></path><path d="M0 657L20 657L20 674L39 674L39 657L59 657L59 656L78 656L78 571L98 571L98 612L117 612L117 575L137 575L137 680L157 680L157 644L176 644L176 687L196 687L196 632L215 632L215 628L235 628L235 555L254 555L254 678L274 678L274 592L293 592L293 564L313 564L313 600L333 600L333 637L352 637L352 577L372 577L372 597L391 597L391 596L411 596L411 588L430 588L430 690L450 690L450 578L450 901L450 901L430 901L430 901L411 901L411 901L391 901L391 901L372 901L372 901L352 901L352 901L333 901L333 901L313 901L313 901L293 901L293 901L274 901L274 901L254 901L254 901L235 901L235 901L215 901L215 901L196 901L196 901L176 901L176 901L157 901L157 901L137 901L137 901L117 901L117 901L98 901L98 901L78 901L78 901L59 901L59 901L39 901L39 901L20 901L20 901L0 901Z" fill="#0f8cc8"></path><path d="M0 685L20 685L20 748L39 748L39 671L59 671L59 714L78 714L78 689L98 689L98 735L117 735L117 671L137 671L137 632L157 632L157 689L176 689L176 680L196 680L196 668L215 668L215 663L235 663L235 661L254 661L254 759L274 759L274 740L293 740L293 759L313 759L313 668L333 668L333 624L352 624L352 692L372 692L372 701L391 701L391 739L411 739L411 732L430 732L430 631L450 631L450 745L450 901L450 901L430 901L430 901L411 901L411 901L391 901L391 901L372 901L372 901L352 901L352 901L333 901L333 901L313 901L313 901L293 901L293 901L274 901L274 901L254 901L254 901L235 901L235 901L215 901L215 901L196 901L196 901L176 901L176 901L157 901L157 901L137 901L137 901L117 901L117 901L98 901L98 901L78 901L78 901L59 901L59 901L39 901L39 901L20 901L20 901L0 901Z" fill="#0e7bb1"></path><path d="M0 696L20 696L20 703L39 703L39 815L59 815L59 770L78 770L78 732L98 732L98 825L117 825L117 705L137 705L137 719L157 719L157 796L176 796L176 709L196 709L196 736L215 736L215 827L235 827L235 800L254 800L254 756L274 756L274 789L293 789L293 721L313 721L313 716L333 716L333 718L352 718L352 765L372 765L372 796L391 796L391 749L411 749L411 789L430 789L430 788L450 788L450 693L450 901L450 901L430 901L430 901L411 901L411 901L391 901L391 901L372 901L372 901L352 901L352 901L333 901L333 901L313 901L313 901L293 901L293 901L274 901L274 901L254 901L254 901L235 901L235 901L215 901L215 901L196 901L196 901L176 901L176 901L157 901L157 901L137 901L137 901L117 901L117 901L98 901L98 901L78 901L78 901L59 901L59 901L39 901L39 901L20 901L20 901L0 901Z" fill="#0b6a9b"></path><path d="M0 784L20 784L20 868L39 868L39 889L59 889L59 776L78 776L78 790L98 790L98 823L117 823L117 782L137 782L137 860L157 860L157 768L176 768L176 835L196 835L196 887L215 887L215 881L235 881L235 853L254 853L254 779L274 779L274 840L293 840L293 854L313 854L313 788L333 788L333 769L352 769L352 877L372 877L372 783L391 783L391 804L411 804L411 879L430 879L430 796L450 796L450 877L450 901L450 901L430 901L430 901L411 901L411 901L391 901L391 901L372 901L372 901L352 901L352 901L333 901L333 901L313 901L313 901L293 901L293 901L274 901L274 901L254 901L254 901L235 901L235 901L215 901L215 901L196 901L196 901L176 901L176 901L157 901L157 901L137 901L137 901L117 901L117 901L98 901L98 901L78 901L78 901L59 901L59 901L39 901L39 901L20 901L20 901L0 901Z" fill="#075985"></path></svg>