<svg id="visual" viewBox="0 0 900 450" width="900" height="450" xmlns="http://www.w3.org/2000/svg" xmlns:xlink="http://www.w3.org/1999/xlink" version="1.1"><rect x="0" y="0" width="900" height="450" fill="#f8fafc"></rect><path d="M0 40L39 64L78 63L117 23L157 10L196 55L235 48L274 22L313 45L352 27L391 43L430 52L470 50L509 44L548 46L587 6L626 35L665 28L704 54L743 61L783 4L822 11L861 67L900 42L900 451L861 451L822 451L783 451L743 451L704 451L665 451L626 451L587 451L548 451L509 451L470 451L430 451L391 451L352 451L313 451L274 451L235 451L196 451L157 451L117 451L78 451L39 451L0 451Z" fill="#f8fafc"></path><path d="M0 87L39 57L78 61L117 69L157 95L196 68L235 90L274 36L313 61L352 48L391 100L430 48L470 78L509 94L548 48L587 71L626 44L665 48L704 35L743 66L783 90L822 54L861 77L900 85L900 451L861 451L822 451L783 451L743 451L704 451L665 451L626 451L587 451L548 451L509 451L470 451L430 451L391 451L352 451L313 451L274 451L235 451L196 451L157 451L117 451L78 451L39 451L0 451Z" fill="#f6f8fb"></path><path d="M0 109L39 120L78 92L117 135L157 91L196 77L235 75L274 112L313 88L352 72L391 113L430 84L470 124L509 99L548 82L587 82L626 88L665 110L704 105L743 117L783 109L822 104L861 98L900 119L900 451L861 451L822 451L783 451L743 451L704 451L665 451L626 451L587 451L548 451L509 451L470 451L430 451L391 451L352 451L313 451L274 451L235 451L196 451L157 451L117 451L78 451L39 451L0 451Z" fill="#f4f7fa"></path><path d="M0 167L39 132L78 145L117 129L157 126L196 126L235 136L274 167L313 156L352 126L391 153L430 137L470 159L509 127L548 153L587 138L626 166L665 167L704 163L743 103L783 104L822 152L861 113L900 116L900 451L861 451L822 451L783 451L743 451L704 451L665 451L626 451L587 451L548 451L509 451L470 451L430 451L391 451L352 451L313 451L274 451L235 451L196 451L157 451L117 451L78 451L39 451L0 451Z" fill="#f2f5f9"></path><path d="M0 161L39 145L78 181L117 156L157 170L196 160L235 170L274 158L313 140L352 157L391 156L430 201L470 157L509 166L548 179L587 204L626 185L665 196L704 188L743 192L783 184L822 153L861 185L900 146L900 451L861 451L822 451L783 451L743 451L704 451L665 451L626 451L587 451L548 451L509 451L470 451L430 451L391 451L352 451L313 451L274 451L235 451L196 451L157 451L117 451L78 451L39 451L0 451Z" fill="#f0f3f8"></path><path d="M0 193L39 182L78 223L117 212L157 195L196 196L235 193L274 223L313 205L352 199L391 215L430 202L470 178L509 179L548 200L587 184L626 180L665 182L704 190L743 194L783 183L822 208L861 239L900 234L900 451L861 451L822 451L783 451L743 451L704 451L665 451L626 451L587 451L548 451L509 451L470 451L430 451L391 451L352 451L313 451L274 451L235 451L196 451L157 451L117 451L78 451L39 451L0 451Z" fill="#eef2f7"></path><path d="M0 213L39 276L78 265L117 249L157 228L196 274L235 254L274 267L313 274L352 222L391 239L430 259L470 239L509 275L548 225L587 222L626 243L665 215L704 265L743 246L783 233L822 217L861 238L900 219L900 451L861 451L822 451L783 451L743 451L704 451L665 451L626 451L587 451L548 451L509 451L470 451L430 451L391 451L352 451L313 451L274 451L235 451L196 451L157 451L117 451L78 451L39 451L0 451Z" fill="#ecf0f5"></path><path d="M0 294L39 246L78 306L117 286L157 280L196 242L235 263L274 307L313 243L352 247L391 270L430 258L470 254L509 254L548 296L587 310L626 280L665 271L704 294L743 274L783 248L822 305L861 258L900 281L900 451L861 451L822 451L783 451L743 451L704 451L665 451L626 451L587 451L548 451L509 451L470 451L430 451L391 451L352 451L313 451L274 451L235 451L196 451L157 451L117 451L78 451L39 451L0 451Z" fill="#eaeff4"></path><path d="M0 298L39 339L78 310L117 292L157 294L196 279L235 342L274 340L313 336L352 328L391 338L430 308L470 284L509 306L548 324L587 320L626 329L665 342L704 316L743 282L783 332L822 301L861 318L900 299L900 451L861 451L822 451L783 451L743 451L704 451L665 451L626 451L587 451L548 451L509 451L470 451L430 451L391 451L352 451L313 451L274 451L235 451L196 451L157 451L117 451L78 451L39 451L0 451Z" fill="#e8edf3"></path><path d="M0 346L39 330L78 318L117 318L157 320L196 329L235 323L274 350L313 354L352 341L391 357L430 347L470 373L509 355L548 356L587 345L626 348L665 311L704 333L743 342L783 327L822 330L861 374L900 359L900 451L861 451L822 451L783 451L743 451L704 451L665 451L626 451L587 451L548 451L509 451L470 451L430 451L391 451L352 451L313 451L274 451L235 451L196 451L157 451L117 451L78 451L39 451L0 451Z" fill="#e6ebf2"></path><path d="M0 360L39 361L78 365L117 360L157 398L196 400L235 372L274 358L313 409L352 385L391 402L430 352L470 383L509 379L548 362L587 365L626 382L665 357L704 405L743 374L783 386L822 407L861 372L900 355L900 451L861 451L822 451L783 451L743 451L704 451L665 451L626 451L587 451L548 451L509 451L470 451L430 451L391 451L352 451L313 451L274 451L235 451L196 451L157 451L117 451L78 451L39 451L0 451Z" fill="#e4eaf1"></path><path d="M0 403L39 382L78 380L117 396L157 434L196 418L235 442L274 422L313 431L352 428L391 393L430 409L470 407L509 448L548 403L587 433L626 431L665 380L704 394L743 424L783 431L822 405L861 394L900 414L900 451L861 451L822 451L783 451L743 451L704 451L665 451L626 451L587 451L548 451L509 451L470 451L430 451L391 451L352 451L313 451L274 451L235 451L196 451L157 451L117 451L78 451L39 451L0 451Z" fill="#e2e8f0"></path></svg>