<svg id="visual" viewBox="0 0 1920 6900" width="1920" height="6900" xmlns="http://www.w3.org/2000/svg" xmlns:xlink="http://www.w3.org/1999/xlink" version="1.1"><rect x="0" y="0" width="1920" height="6900" fill="#0f172a"></rect><path d="M0 38L213 38L213 600L427 600L427 447L640 447L640 821L853 821L853 616L1067 616L1067 1032L1280 1032L1280 736L1493 736L1493 165L1707 165L1707 1000L1920 1000L1920 399L1920 6901L1920 6901L1707 6901L1707 6901L1493 6901L1493 6901L1280 6901L1280 6901L1067 6901L1067 6901L853 6901L853 6901L640 6901L640 6901L427 6901L427 6901L213 6901L213 6901L0 6901Z" fill="#0f172a"></path><path d="M0 1021L213 1021L213 646L427 646L427 1363L640 1363L640 876L853 876L853 1196L1067 1196L1067 1261L1280 1261L1280 1047L1493 1047L1493 1291L1707 1291L1707 808L1920 808L1920 1339L1920 6901L1920 6901L1707 6901L1707 6901L1493 6901L1493 6901L1280 6901L1280 6901L1067 6901L1067 6901L853 6901L853 6901L640 6901L640 6901L427 6901L427 6901L213 6901L213 6901L0 6901Z" fill="#2a3347"></path><path d="M0 1792L213 1792L213 1938L427 1938L427 1927L640 1927L640 1629L853 1629L853 2073L1067 2073L1067 1346L1280 1346L1280 1213L1493 1213L1493 1065L1707 1065L1707 1911L1920 1911L1920 1267L1920 6901L1920 6901L1707 6901L1707 6901L1493 6901L1493 6901L1280 6901L1280 6901L1067 6901L1067 6901L853 6901L853 6901L640 6901L640 6901L427 6901L427 6901L213 6901L213 6901L0 6901Z" fill="#475267"></path><path d="M0 2474L213 2474L213 2370L427 2370L427 2294L640 2294L640 1743L853 1743L853 2464L1067 2464L1067 1967L1280 1967L1280 1712L1493 1712L1493 1647L1707 1647L1707 1946L1920 1946L1920 1629L1920 6901L1920 6901L1707 6901L1707 6901L1493 6901L1493 6901L1280 6901L1280 6901L1067 6901L1067 6901L853 6901L853 6901L640 6901L640 6901L427 6901L427 6901L213 6901L213 6901L0 6901Z" fill="#667288"></path><path d="M0 2860L213 2860L213 3107L427 3107L427 2555L640 2555L640 2342L853 2342L853 2159L1067 2159L1067 2416L1280 2416L1280 2800L1493 2800L1493 2795L1707 2795L1707 2432L1920 2432L1920 2384L1920 6901L1920 6901L1707 6901L1707 6901L1493 6901L1493 6901L1280 6901L1280 6901L1067 6901L1067 6901L853 6901L853 6901L640 6901L640 6901L427 6901L427 6901L213 6901L213 6901L0 6901Z" fill="#8795aa"></path><path d="M0 3295L213 3295L213 3060L427 3060L427 3416L640 3416L640 2756L853 2756L853 3267L1067 3267L1067 2877L1280 2877L1280 2714L1493 2714L1493 2968L1707 2968L1707 2869L1920 2869L1920 3449L1920 6901L1920 6901L1707 6901L1707 6901L1493 6901L1493 6901L1280 6901L1280 6901L1067 6901L1067 6901L853 6901L853 6901L640 6901L640 6901L427 6901L427 6901L213 6901L213 6901L0 6901Z" fill="#94a3b8"></path><path d="M0 3498L213 3498L213 3672L427 3672L427 3954L640 3954L640 4106L853 4106L853 3187L1067 3187L1067 3660L1280 3660L1280 3721L1493 3721L1493 3499L1707 3499L1707 3199L1920 3199L1920 3986L1920 6901L1920 6901L1707 6901L1707 6901L1493 6901L1493 6901L1280 6901L1280 6901L1067 6901L1067 6901L853 6901L853 6901L640 6901L640 6901L427 6901L427 6901L213 6901L213 6901L0 6901Z" fill="#94a3b8"></path><path d="M0 3996L213 3996L213 4188L427 4188L427 4575L640 4575L640 3994L853 3994L853 4294L1067 4294L1067 4423L1280 4423L1280 4684L1493 4684L1493 4309L1707 4309L1707 4007L1920 4007L1920 3853L1920 6901L1920 6901L1707 6901L1707 6901L1493 6901L1493 6901L1280 6901L1280 6901L1067 6901L1067 6901L853 6901L853 6901L640 6901L640 6901L427 6901L427 6901L213 6901L213 6901L0 6901Z" fill="#8795aa"></path><path d="M0 5182L213 5182L213 4571L427 4571L427 5124L640 5124L640 4954L853 4954L853 4764L1067 4764L1067 4923L1280 4923L1280 4981L1493 4981L1493 4936L1707 4936L1707 5008L1920 5008L1920 4834L1920 6901L1920 6901L1707 6901L1707 6901L1493 6901L1493 6901L1280 6901L1280 6901L1067 6901L1067 6901L853 6901L853 6901L640 6901L640 6901L427 6901L427 6901L213 6901L213 6901L0 6901Z" fill="#667288"></path><path d="M0 5608L213 5608L213 4795L427 4795L427 5363L640 5363L640 5176L853 5176L853 4818L1067 4818L1067 5315L1280 5315L1280 5659L1493 5659L1493 5191L1707 5191L1707 4835L1920 4835L1920 5673L1920 6901L1920 6901L1707 6901L1707 6901L1493 6901L1493 6901L1280 6901L1280 6901L1067 6901L1067 6901L853 6901L853 6901L640 6901L640 6901L427 6901L427 6901L213 6901L213 6901L0 6901Z" fill="#475267"></path><path d="M0 6118L213 6118L213 5658L427 5658L427 5928L640 5928L640 6032L853 6032L853 6116L1067 6116L1067 5853L1280 5853L1280 5549L1493 5549L1493 5365L1707 5365L1707 5570L1920 5570L1920 5703L1920 6901L1920 6901L1707 6901L1707 6901L1493 6901L1493 6901L1280 6901L1280 6901L1067 6901L1067 6901L853 6901L853 6901L640 6901L640 6901L427 6901L427 6901L213 6901L213 6901L0 6901Z" fill="#2a3347"></path><path d="M0 5904L213 5904L213 6055L427 6055L427 6181L640 6181L640 6416L853 6416L853 6195L1067 6195L1067 6841L1280 6841L1280 5954L1493 5954L1493 5969L1707 5969L1707 6452L1920 6452L1920 6633L1920 6901L1920 6901L1707 6901L1707 6901L1493 6901L1493 6901L1280 6901L1280 6901L1067 6901L1067 6901L853 6901L853 6901L640 6901L640 6901L427 6901L427 6901L213 6901L213 6901L0 6901Z" fill="#0f172a"></path></svg>